# xmcd
# 
# Track frame offsets:
#     182
#     24502
#     37330
#     61337
#     74725
#     87702
#     100752
#     114007
#     127187
#     141865
#     162805
#     180917
#     196525
#     209737
#     230005
#     248910
# 
# Disc length: 3830
# 
# Revision: 1
# Processed by: cddbd v1.5.2PL0 Copyright (c) Steve Scherf et al.
# Submitted via: BonkEnc v1.0.8
# 
DISCID=e80ef410
DTITLE=Various Artist - Blues Festival 2
DYEAR=0
DGENRE=Blues
TTITLE0=Jimmie Lunceford - Blues In The Night
TTITLE1=Sidney Bechet - Jelly Roll Blues
TTITLE2=Rex Stewart - Basin Street Blues
TTITLE3=Duke Ellington - Across The Blues
TTITLE4=Billie Holiday - Am I Blue
TTITLE5=Nat King Cole Trio - Early Morning Blues
TTITLE6=Memphis Slim - You Got To Help Me Some
TTITLE7=Memphis Slim - Empty Room Blues
TTITLE8=Jack Teagarden - Prelude To The Blues
TTITLE9=Zoot Sims - When The Blues Come On
TTITLE10=Julian "Cannonball" Adderley - Blues For Bohemia
TTITLE11=Julian "Cannonball" Adderley - Between The Devil And The Deep Blue Sea
TTITLE12=Lionel Hampton - Singin' The Blues
TTITLE13=Buck Clayton Quintet - B.C.Blues
TTITLE14=Artistes divers - I Gotta Right To Sing The Blues
TTITLE15=Cootie William. Rex Stewart. Coleman Hawkins - Alphonse Et Gaston
EXTD=
EXTT0=
EXTT1=
EXTT2=
EXTT3=
EXTT4=
EXTT5=
EXTT6=
EXTT7=
EXTT8=
EXTT9=
EXTT10=
EXTT11=
EXTT12=
EXTT13=
EXTT14=
EXTT15=
PLAYORDER=
